<svg width="24" height="24" viewBox="0 0 24 24" fill="none" xmlns="http://www.w3.org/2000/svg">
<path d="M23.0268 11.2786L0.620553 0.04466C0.529482 -0.000875748 0.425017 -0.0115899 0.32591 0.0125172C0.215916 0.0397095 0.121178 0.109379 0.0624399 0.206271C0.00370221 0.303163 -0.014249 0.419382 0.0125171 0.529481L2.32145 9.96341C2.35627 10.1054 2.46073 10.2206 2.60002 10.2661L6.55627 11.6241L2.6027 12.9822C2.46341 13.0304 2.35895 13.1429 2.3268 13.2848L0.0125171 22.7322C-0.01159 22.8313 -0.000875601 22.9357 0.0446601 23.0241C0.149124 23.2357 0.406267 23.3214 0.620553 23.217L23.0268 12.0473C23.1098 12.0072 23.1768 11.9375 23.2197 11.8572C23.3241 11.6429 23.2384 11.3857 23.0268 11.2786ZM2.65359 20.0482L4.00091 14.5411L11.9081 11.8277C11.9697 11.8063 12.0206 11.7581 12.042 11.6938C12.0795 11.5813 12.0206 11.4607 11.9081 11.4206L4.00091 8.70984L2.65895 3.22412L19.4804 11.6589L2.65359 20.0482V20.0482Z" fill="#595959"/>
</svg>
